<?xml version="1.0" encoding="UTF-8"?>
<!DOCTYPE svg PUBLIC "-//W3C//DTD SVG 1.1//EN" "http://www.w3.org/Graphics/SVG/1.1/DTD/svg11.dtd">
<!-- Creator: CorelDRAW 2018 (64 Bit) -->
<svg xmlns="http://www.w3.org/2000/svg" xml:space="preserve" width="200mm" height="200mm" version="1.1" style="shape-rendering:geometricPrecision; text-rendering:geometricPrecision; image-rendering:optimizeQuality; fill-rule:evenodd; clip-rule:evenodd"
viewBox="0 0 20000 20000"
 xmlns:xlink="http://www.w3.org/1999/xlink">
 <defs>
  <style type="text/css">
   <![CDATA[
    .fil3 {fill:#4F5A69}
    .fil2 {fill:#5C9CEC}
    .fil0 {fill:#FC6D51}
    .fil4 {fill:#FFCE54}
    .fil1 {fill:white}
   ]]>
  </style>
 </defs>
 <g id="Camada_x0020_1">
  <metadata id="CorelCorpID_0Corel-Layer"/>
  <g id="_3214108687920">
   <circle class="fil0" cx="10000" cy="10000" r="10000"/>
   <g>
    <path class="fil1" d="M5582.4 5367.23l8850.76 -4.83 14.91 7043.96 -8830.58 2.48 -34.9 -2.48 -0.19 -7039.13zm9519.75 9919.56c-36.23,-208.6 -10.57,-2215.09 -10.57,-2608.11l0 -5237.42c0,-858.84 -20.43,-1744.03 0.81,-2598.83l0.62 -129.53 -40.16 0 -10155.01 0 39.93 0 0 10574.2 10164.38 -0.31z"/>
    <path class="fil2" d="M11134.78 9029.81c127.59,128.25 242.86,204.34 377.92,352.22l764.35 715.06c296.45,261.94 673.67,650.07 946.03,892.7 143.23,127.61 909.9,827.13 942.73,899.37l-7154.13 -0.08c6.05,-6.6 416.07,-302.34 483.96,-350.31l2338.06 -1619.97c199.64,-131.57 1228.27,-862.99 1301.08,-888.99zm-4842.74 2854.38l-5.04 -3973.26c78.62,12.51 686.82,417.81 808.28,491.05 268.18,161.71 2320.94,1472.63 2464.03,1534.29 -38.95,56.64 -124.43,106.5 -181.76,145.43l-2515.42 1742.96c-137.56,92.6 -396.31,81.17 -570.09,59.53zm3219.67 -5172.56c472.83,-83.13 861.33,281.06 918.28,673.84 70.39,485.53 -275.03,844.38 -669.43,918.52 -472.91,88.89 -870.12,-275.53 -926.58,-663.41 -72.79,-500.07 268.63,-857.01 677.73,-928.95zm-3929.12 5694.73l34.9 2.48 8830.58 -2.48 -14.91 -7043.96 -8850.76 4.83 0.19 7039.13z"/>
    <path class="fil3" d="M11134.78 9029.81c-72.81,26 -1101.44,757.42 -1301.08,888.99l-2338.06 1619.97c-67.89,47.97 -477.91,343.71 -483.96,350.31l7154.13 0.08c-32.83,-72.24 -799.5,-771.76 -942.73,-899.37 -272.36,-242.63 -649.58,-630.76 -946.03,-892.7l-764.35 -715.06c-135.06,-147.88 -250.33,-223.97 -377.92,-352.22z"/>
    <path class="fil3" d="M6292.04 11884.19c173.78,21.64 432.53,33.07 570.09,-59.53l2515.42 -1742.96c57.33,-38.93 142.81,-88.79 181.76,-145.43 -143.09,-61.66 -2195.85,-1372.58 -2464.03,-1534.29 -121.46,-73.24 -729.66,-478.54 -808.28,-491.05l5.04 3973.26z"/>
    <path class="fil4" d="M9511.71 6711.63c-409.1,71.94 -750.52,428.88 -677.73,928.95 56.46,387.88 453.67,752.3 926.58,663.41 394.4,-74.14 739.82,-432.99 669.43,-918.52 -56.95,-392.78 -445.45,-756.97 -918.28,-673.84z"/>
   </g>
  </g>
 </g>
</svg>
