<?xml version="1.0" encoding="UTF-8"?>
<!DOCTYPE svg PUBLIC "-//W3C//DTD SVG 1.1//EN" "http://www.w3.org/Graphics/SVG/1.1/DTD/svg11.dtd">
<!-- Creator: CorelDRAW 2018 (64 Bit) -->
<svg xmlns="http://www.w3.org/2000/svg" xml:space="preserve" width="210mm" height="297mm" version="1.1" style="shape-rendering:geometricPrecision; text-rendering:geometricPrecision; image-rendering:optimizeQuality; fill-rule:evenodd; clip-rule:evenodd"
viewBox="0 0 21000 29700"
 xmlns:xlink="http://www.w3.org/1999/xlink">
 <defs>
  <style type="text/css">
   <![CDATA[
    .str0 {stroke:#E6E7E8;stroke-width:7.62;stroke-miterlimit:22.9256}
    .fil1 {fill:#FEFEFE}
    .fil2 {fill:url(#id0)}
    .fil0 {fill:url(#id1)}
   ]]>
  </style>
  <linearGradient id="id0" gradientUnits="userSpaceOnUse" x1="10558.14" y1="14297.14" x2="12553.96" y2="14297.14">
   <stop offset="0" style="stop-opacity:0.466667; stop-color:#9F2E65"/>
   <stop offset="1" style="stop-opacity:1; stop-color:#F26522"/>
  </linearGradient>
  <linearGradient id="id1" gradientUnits="userSpaceOnUse" x1="8332.53" y1="14850.01" x2="12667.46" y2="14850.01">
   <stop offset="0" style="stop-opacity:1; stop-color:#9D2D67"/>
   <stop offset="1" style="stop-opacity:1; stop-color:#EF4723"/>
  </linearGradient>
 </defs>
 <g id="Camada_x0020_1">
  <metadata id="CorelCorpID_0Corel-Layer"/>
  <g id="_3214108672400">
   <rect class="fil0" x="8332.53" y="12682.53" width="4334.93" height="4334.94" rx="821.45" ry="866.99"/>
   <path class="fil1" d="M10055.42 15810.86c1.64,73.49 14.83,155.15 -26.89,207.79 -27.63,34.86 -75.04,74.26 -126.73,96.64 -451.22,195.44 -614.96,-520.17 153.62,-304.43zm951.19 -439.44c427.16,-97.13 569.59,596.24 169.65,726.14 -191.58,62.22 -401.71,-116.77 -410.51,-272.18 -10.85,-191.38 -25.59,-393.37 240.86,-453.96zm-1012.6 898.61l111.45 -102.45 14.28 67.05c19.32,153.83 165.14,152.2 324.32,130.08l0.86 501.28 321.34 -3.73 1.38 -700.22c86.99,79.08 112.54,153.53 267.7,199.55 718.22,213 981.22,-958.01 347.19,-1224.92 -246.02,-103.57 -466.1,-37.5 -631.24,150.28 -16.57,18.83 -8.46,11.64 -25.47,25.75l-2.18 -201.07 -278.33 1.91 -0.43 969.88c-92.3,-32.02 -68.91,-110.35 -68.59,-214.4 0.3,-92.89 2.95,-190.76 -0.24,-283.12 -6.18,-178.46 -75.39,-318.59 -172.1,-384.69 -264.37,-180.7 -729.99,-110.56 -870.48,28.77l99.92 189.57c125.45,-58.21 232.94,-129.47 414.96,-101.06 178.03,27.79 207.61,126.35 207.69,317.2 -209.98,-51.24 -378.01,-83.63 -584.76,3.36 -178.66,75.17 -252.35,195.73 -249.02,434.58 -102.87,21.11 -189.27,26.43 -203.6,-70.42 -38.55,-67.3 -15.99,-426.59 -15.66,-536.07 0.03,-14.76 -1.9,-48.07 -0.58,-60.52 5.68,-53.67 8.88,-32.93 15.76,-43.01 58.42,-24.24 172.1,-9.45 246.63,-9.45l0.89 -20.95 -5.82 -218.64 -249.72 -11.17 0.33 -395.69 -321.66 0.16 0.39 403.39 -161.43 1.04 4.53 245.42 156.73 2.93c0.17,219.07 -0.6,438.15 -0.32,657.2 0.5,393.6 292.47,412.78 572.57,318.78 163.86,-54.99 75.93,-33.29 220.82,19.06 200.69,72.52 376.52,2.69 511.89,-85.66z"/>
   <path class="fil2 str0" d="M11997.72 13210.17l0.78 1557.61 -1201.01 5.15 1200.23 -1562.76zm-353.55 161.11l-1061.84 1363.27 -24.19 225.2 1349.17 -4.24c104.87,14.68 37.63,3.27 74.49,31.25l0.24 748.79 206.39 -1.91 14.9 -764.56 350.63 0.04 -3.91 -191.83 -360.5 -0.28 -0.51 -1800.06 -0.68 -118.21 -131.26 0.23 -412.93 512.31z"/>
  </g>
 </g>
</svg>
