<?xml version="1.0" encoding="UTF-8"?>
<!DOCTYPE svg PUBLIC "-//W3C//DTD SVG 1.1//EN" "http://www.w3.org/Graphics/SVG/1.1/DTD/svg11.dtd">
<!-- Creator: CorelDRAW 2018 (64 Bit) -->
<svg xmlns="http://www.w3.org/2000/svg" xml:space="preserve" width="107mm" height="52mm" version="1.1" style="shape-rendering:geometricPrecision; text-rendering:geometricPrecision; image-rendering:optimizeQuality; fill-rule:evenodd; clip-rule:evenodd"
viewBox="0 0 10700 5200"
 xmlns:xlink="http://www.w3.org/1999/xlink">
 <defs>
  <style type="text/css">
   <![CDATA[
    .fil0 {fill:url(#id0)}
    .fil1 {fill:url(#id1)}
   ]]>
  </style>
  <linearGradient id="id0" gradientUnits="userSpaceOnUse" x1="8.48" y1="2600" x2="7637.08" y2="2600">
   <stop offset="0" style="stop-opacity:1; stop-color:#8E2A74"/>
   <stop offset="1" style="stop-opacity:1; stop-color:#EE3A23"/>
  </linearGradient>
  <linearGradient id="id1" gradientUnits="userSpaceOnUse" x1="7971.36" y1="2003.11" x2="10691.51" y2="2003.11">
   <stop offset="0" style="stop-opacity:1; stop-color:#EF4423"/>
   <stop offset="1" style="stop-opacity:1; stop-color:#F26522"/>
  </linearGradient>
 </defs>
 <g id="Camada_x0020_1">
  <metadata id="CorelCorpID_0Corel-Layer"/>
  <g id="_3179114449344">
   <path class="fil0" d="M3635.01 2657c3.89,174.45 35.22,368.33 -63.82,493.29 -65.6,82.75 -178.15,176.28 -300.85,229.42 -1071.18,463.95 -1459.89,-1234.86 364.67,-722.71zm2258.1 -1043.21c1014.06,-230.58 1352.17,1415.44 402.73,1723.82 -454.79,147.72 -953.63,-277.2 -974.54,-646.15 -25.74,-454.31 -60.74,-933.83 571.81,-1077.67zm-2403.89 2133.25l264.6 -243.2 33.89 159.18c45.86,365.17 392.04,361.3 769.91,308.79l2.05 1190.02 762.86 -8.85 3.26 -1662.29c206.51,187.73 267.18,364.48 635.51,473.72 1705.02,505.65 2329.37,-2274.27 824.22,-2907.91 -584.04,-245.87 -1106.5,-89.02 -1498.54,356.75 -39.33,44.72 -20.08,27.65 -60.47,61.14l-5.16 -477.33 -660.75 4.53 -1.01 2302.46c-219.12,-76.02 -163.61,-261.97 -162.83,-508.98 0.7,-220.52 6.99,-452.86 -0.59,-672.12 -14.67,-423.65 -178.97,-756.31 -408.55,-913.23 -627.61,-428.98 -1732.96,-262.47 -2066.49,68.29l237.21 450.04c297.81,-138.2 552.99,-307.37 985.11,-239.92 422.63,65.97 492.86,299.94 493.04,753.02 -498.49,-121.65 -897.38,-198.53 -1388.19,7.98 -424.13,178.45 -599.08,464.66 -591.16,1031.67 -244.21,50.11 -449.32,62.74 -483.35,-167.18 -91.51,-159.75 -37.96,-1012.7 -37.17,-1272.6 0.06,-35.04 -4.51,-114.11 -1.38,-143.67 13.49,-127.41 21.07,-78.17 37.42,-102.1 138.67,-57.55 408.56,-22.45 585.48,-22.45l2.12 -49.73 -13.83 -519.04 -592.82 -26.51 0.78 -939.35 -763.61 0.37 0.93 957.63 -383.23 2.47 10.75 582.62 372.09 6.97c0.39,520.04 -1.44,1040.13 -0.77,1560.15 1.2,934.39 694.31,979.92 1359.27,756.77 388.99,-130.55 180.24,-79.03 524.2,45.26 476.43,172.15 893.84,6.37 1215.2,-203.37z"/>
   <path class="fil1" d="M9933.4 521.65l1.06 2122.89 -1636.88 7.02 1635.82 -2129.91zm-481.87 219.58l-1447.2 1858.03 -32.97 306.92 1838.82 -5.77c142.92,20.01 51.28,4.46 101.52,42.59l0.32 1020.54 281.3 -2.6 20.31 -1042.04 477.88 0.05 -5.33 -261.45 -491.34 -0.37 -0.69 -2453.35 -0.93 -161.11 -178.9 0.31 -562.79 698.25z"/>
  </g>
 </g>
</svg>
